<?xml version="1.0" encoding="utf-8"?>
<svg xmlns="http://www.w3.org/2000/svg" xmlns:xlink="http://www.w3.org/1999/xlink" width="600" height="400" viewBox="0 0 600 400">
<defs>
  <clipPath id="clip00">
    <rect x="0" y="0" width="600" height="400"/>
  </clipPath>
</defs>
<polygon clip-path="url(#clip00)" points="
0,400 600,400 600,0 0,0 
  " fill="#ffffff" fill-opacity="1"/>
<defs>
  <clipPath id="clip01">
    <rect x="120" y="0" width="421" height="400"/>
  </clipPath>
</defs>
<polygon clip-path="url(#clip00)" points="
36.9926,369.674 596.063,369.674 596.063,23.3815 36.9926,23.3815 
  " fill="#ffffff" fill-opacity="1"/>
<defs>
  <clipPath id="clip02">
    <rect x="36" y="23" width="560" height="347"/>
  </clipPath>
</defs>
<polyline clip-path="url(#clip02)" style="stroke:#00002d; stroke-width:0.8; stroke-opacity:1; fill:none" points="
  36.9926,369.674 596.063,369.674 
  "/>
<polyline clip-path="url(#clip02)" style="stroke:#00002d; stroke-width:0.8; stroke-opacity:1; fill:none" points="
  128.162,369.674 128.162,364.48 
  "/>
<polyline clip-path="url(#clip02)" style="stroke:#00002d; stroke-width:0.8; stroke-opacity:1; fill:none" points="
  316.528,369.674 316.528,364.48 
  "/>
<polyline clip-path="url(#clip02)" style="stroke:#00002d; stroke-width:0.8; stroke-opacity:1; fill:none" points="
  504.894,369.674 504.894,364.48 
  "/>
<polyline clip-path="url(#clip02)" style="stroke:#00002d; stroke-width:0.8; stroke-opacity:1; fill:none" points="
  36.9926,369.674 36.9926,23.3815 
  "/>
<polyline clip-path="url(#clip02)" style="stroke:#00002d; stroke-width:0.8; stroke-opacity:1; fill:none" points="
  36.9926,369.674 45.3786,369.674 
  "/>
<polyline clip-path="url(#clip02)" style="stroke:#00002d; stroke-width:0.8; stroke-opacity:1; fill:none" points="
  36.9926,282.226 45.3786,282.226 
  "/>
<polyline clip-path="url(#clip02)" style="stroke:#00002d; stroke-width:0.8; stroke-opacity:1; fill:none" points="
  36.9926,194.779 45.3786,194.779 
  "/>
<polyline clip-path="url(#clip02)" style="stroke:#00002d; stroke-width:0.8; stroke-opacity:1; fill:none" points="
  36.9926,107.331 45.3786,107.331 
  "/>
<g clip-path="url(#clip00)">
<text style="fill:#00002d; fill-opacity:1; font-family:Arial,Helvetica Neue,Helvetica,sans-serif; font-size:12; text-anchor:middle;" transform="rotate(0, 128.162, 381.674)" x="128.162" y="381.674">250</text>
</g>
<g clip-path="url(#clip00)">
<text style="fill:#00002d; fill-opacity:1; font-family:Arial,Helvetica Neue,Helvetica,sans-serif; font-size:12; text-anchor:middle;" transform="rotate(0, 316.528, 381.674)" x="316.528" y="381.674">500</text>
</g>
<g clip-path="url(#clip00)">
<text style="fill:#00002d; fill-opacity:1; font-family:Arial,Helvetica Neue,Helvetica,sans-serif; font-size:12; text-anchor:middle;" transform="rotate(0, 504.894, 381.674)" x="504.894" y="381.674">750</text>
</g>
<g clip-path="url(#clip00)">
<text style="fill:#00002d; fill-opacity:1; font-family:Arial,Helvetica Neue,Helvetica,sans-serif; font-size:12; text-anchor:end;" transform="rotate(0, 35.7926, 374.174)" x="35.7926" y="374.174">0</text>
</g>
<g clip-path="url(#clip00)">
<text style="fill:#00002d; fill-opacity:1; font-family:Arial,Helvetica Neue,Helvetica,sans-serif; font-size:12; text-anchor:end;" transform="rotate(0, 35.7926, 286.726)" x="35.7926" y="286.726">5</text>
</g>
<g clip-path="url(#clip00)">
<text style="fill:#00002d; fill-opacity:1; font-family:Arial,Helvetica Neue,Helvetica,sans-serif; font-size:12; text-anchor:end;" transform="rotate(0, 35.7926, 199.279)" x="35.7926" y="199.279">10</text>
</g>
<g clip-path="url(#clip00)">
<text style="fill:#00002d; fill-opacity:1; font-family:Arial,Helvetica Neue,Helvetica,sans-serif; font-size:12; text-anchor:end;" transform="rotate(0, 35.7926, 111.831)" x="35.7926" y="111.831">15</text>
</g>
<g clip-path="url(#clip00)">
<text style="fill:#00002d; fill-opacity:1; font-family:Arial,Helvetica Neue,Helvetica,sans-serif; font-size:21; text-anchor:middle;" transform="rotate(0, 316.528, 18)" x="316.528" y="18">distribution of dimer at t = 100</text>
</g>
<g clip-path="url(#clip00)">
<text style="fill:#00002d; fill-opacity:1; font-family:Arial,Helvetica Neue,Helvetica,sans-serif; font-size:16; text-anchor:middle;" transform="rotate(0, 316.528, 397.6)" x="316.528" y="397.6">population size</text>
</g>
<g clip-path="url(#clip00)">
<text style="fill:#00002d; fill-opacity:1; font-family:Arial,Helvetica Neue,Helvetica,sans-serif; font-size:16; text-anchor:middle;" transform="rotate(-90, 14.4, 196.528)" x="14.4" y="196.528">frequency</text>
</g>
<polygon clip-path="url(#clip02)" points="
52.8153,282.226 52.8153,369.674 90.4885,369.674 90.4885,282.226 52.8153,282.226 52.8153,282.226 
  " fill="#0099ff" fill-opacity="1"/>
<polyline clip-path="url(#clip02)" style="stroke:#00002d; stroke-width:0.8; stroke-opacity:1; fill:none" points="
  52.8153,282.226 52.8153,369.674 90.4885,369.674 90.4885,282.226 52.8153,282.226 
  "/>
<polygon clip-path="url(#clip02)" points="
90.4885,212.268 90.4885,369.674 128.162,369.674 128.162,212.268 90.4885,212.268 90.4885,212.268 
  " fill="#0099ff" fill-opacity="1"/>
<polyline clip-path="url(#clip02)" style="stroke:#00002d; stroke-width:0.8; stroke-opacity:1; fill:none" points="
  90.4885,212.268 90.4885,369.674 128.162,369.674 128.162,212.268 90.4885,212.268 
  "/>
<polygon clip-path="url(#clip02)" points="
128.162,54.8626 128.162,369.674 165.835,369.674 165.835,54.8626 128.162,54.8626 128.162,54.8626 
  " fill="#0099ff" fill-opacity="1"/>
<polyline clip-path="url(#clip02)" style="stroke:#00002d; stroke-width:0.8; stroke-opacity:1; fill:none" points="
  128.162,54.8626 128.162,369.674 165.835,369.674 165.835,54.8626 128.162,54.8626 
  "/>
<polygon clip-path="url(#clip02)" points="
165.835,89.8417 165.835,369.674 203.508,369.674 203.508,89.8417 165.835,89.8417 165.835,89.8417 
  " fill="#0099ff" fill-opacity="1"/>
<polyline clip-path="url(#clip02)" style="stroke:#00002d; stroke-width:0.8; stroke-opacity:1; fill:none" points="
  165.835,89.8417 165.835,369.674 203.508,369.674 203.508,89.8417 165.835,89.8417 
  "/>
<polygon clip-path="url(#clip02)" points="
203.508,72.3521 203.508,369.674 241.181,369.674 241.181,72.3521 203.508,72.3521 203.508,72.3521 
  " fill="#0099ff" fill-opacity="1"/>
<polyline clip-path="url(#clip02)" style="stroke:#00002d; stroke-width:0.8; stroke-opacity:1; fill:none" points="
  203.508,72.3521 203.508,369.674 241.181,369.674 241.181,72.3521 203.508,72.3521 
  "/>
<polygon clip-path="url(#clip02)" points="
241.181,72.3521 241.181,369.674 278.855,369.674 278.855,72.3521 241.181,72.3521 241.181,72.3521 
  " fill="#0099ff" fill-opacity="1"/>
<polyline clip-path="url(#clip02)" style="stroke:#00002d; stroke-width:0.8; stroke-opacity:1; fill:none" points="
  241.181,72.3521 241.181,369.674 278.855,369.674 278.855,72.3521 241.181,72.3521 
  "/>
<polygon clip-path="url(#clip02)" points="
278.855,282.226 278.855,369.674 316.528,369.674 316.528,282.226 278.855,282.226 278.855,282.226 
  " fill="#0099ff" fill-opacity="1"/>
<polyline clip-path="url(#clip02)" style="stroke:#00002d; stroke-width:0.8; stroke-opacity:1; fill:none" points="
  278.855,282.226 278.855,369.674 316.528,369.674 316.528,282.226 278.855,282.226 
  "/>
<polygon clip-path="url(#clip02)" points="
316.528,317.206 316.528,369.674 354.201,369.674 354.201,317.206 316.528,317.206 316.528,317.206 
  " fill="#0099ff" fill-opacity="1"/>
<polyline clip-path="url(#clip02)" style="stroke:#00002d; stroke-width:0.8; stroke-opacity:1; fill:none" points="
  316.528,317.206 316.528,369.674 354.201,369.674 354.201,317.206 316.528,317.206 
  "/>
<polygon clip-path="url(#clip02)" points="
354.201,299.716 354.201,369.674 391.874,369.674 391.874,299.716 354.201,299.716 354.201,299.716 
  " fill="#0099ff" fill-opacity="1"/>
<polyline clip-path="url(#clip02)" style="stroke:#00002d; stroke-width:0.8; stroke-opacity:1; fill:none" points="
  354.201,299.716 354.201,369.674 391.874,369.674 391.874,299.716 354.201,299.716 
  "/>
<polygon clip-path="url(#clip02)" points="
391.874,334.695 391.874,369.674 429.547,369.674 429.547,334.695 391.874,334.695 391.874,334.695 
  " fill="#0099ff" fill-opacity="1"/>
<polyline clip-path="url(#clip02)" style="stroke:#00002d; stroke-width:0.8; stroke-opacity:1; fill:none" points="
  391.874,334.695 391.874,369.674 429.547,369.674 429.547,334.695 391.874,334.695 
  "/>
<polygon clip-path="url(#clip02)" points="
429.547,334.695 429.547,369.674 467.221,369.674 467.221,334.695 429.547,334.695 429.547,334.695 
  " fill="#0099ff" fill-opacity="1"/>
<polyline clip-path="url(#clip02)" style="stroke:#00002d; stroke-width:0.8; stroke-opacity:1; fill:none" points="
  429.547,334.695 429.547,369.674 467.221,369.674 467.221,334.695 429.547,334.695 
  "/>
<polygon clip-path="url(#clip02)" points="
467.221,352.185 467.221,369.674 504.894,369.674 504.894,352.185 467.221,352.185 467.221,352.185 
  " fill="#0099ff" fill-opacity="1"/>
<polyline clip-path="url(#clip02)" style="stroke:#00002d; stroke-width:0.8; stroke-opacity:1; fill:none" points="
  467.221,352.185 467.221,369.674 504.894,369.674 504.894,352.185 467.221,352.185 
  "/>
<polygon clip-path="url(#clip02)" points="
504.894,369.674 504.894,369.674 542.567,369.674 542.567,369.674 504.894,369.674 504.894,369.674 
  " fill="#0099ff" fill-opacity="1"/>
<polyline clip-path="url(#clip02)" style="stroke:#00002d; stroke-width:0.8; stroke-opacity:1; fill:none" points="
  504.894,369.674 504.894,369.674 542.567,369.674 504.894,369.674 
  "/>
<polygon clip-path="url(#clip02)" points="
542.567,352.185 542.567,369.674 580.24,369.674 580.24,352.185 542.567,352.185 542.567,352.185 
  " fill="#0099ff" fill-opacity="1"/>
<polyline clip-path="url(#clip02)" style="stroke:#00002d; stroke-width:0.8; stroke-opacity:1; fill:none" points="
  542.567,352.185 542.567,369.674 580.24,369.674 580.24,352.185 542.567,352.185 
  "/>
<polygon clip-path="url(#clip00)" points="
503.568,74.5015 578.063,74.5015 578.063,44.2615 503.568,44.2615 
  " fill="#ffffff" fill-opacity="1"/>
<polyline clip-path="url(#clip00)" style="stroke:#00002d; stroke-width:0.8; stroke-opacity:1; fill:none" points="
  503.568,74.5015 578.063,74.5015 578.063,44.2615 503.568,44.2615 503.568,74.5015 
  "/>
<polygon clip-path="url(#clip00)" points="
509.568,65.4295 545.568,65.4295 545.568,53.3335 509.568,53.3335 509.568,65.4295 
  " fill="#0099ff" fill-opacity="1"/>
<polyline clip-path="url(#clip00)" style="stroke:#00002d; stroke-width:0.8; stroke-opacity:1; fill:none" points="
  509.568,65.4295 545.568,65.4295 545.568,53.3335 509.568,53.3335 509.568,65.4295 
  "/>
<g clip-path="url(#clip00)">
<text style="fill:#00002d; fill-opacity:1; font-family:Arial,Helvetica Neue,Helvetica,sans-serif; font-size:12; text-anchor:start;" transform="rotate(0, 551.568, 63.8815)" x="551.568" y="63.8815">P2</text>
</g>
</svg>
